<svg width="489" height="474" viewBox="0 0 489 474" fill="none" xmlns="http://www.w3.org/2000/svg">
<path d="M383.07 188.83L402.37 180.56L384.48 174.25L383.07 188.83Z" fill="white"/>
<path d="M104.65 170.91L86.74 180.56L104.65 188.83V170.91Z" fill="white"/>
<path d="M125.81 163.9C125.78 163.95 125.74 163.99 125.71 164.04C122.28 176.24 120.12 187.83 119.3 192.55L244.3 238.61L367.16 193.33C366.86 174.46 360.75 154.75 349.41 136.25L344.43 128.13L351.23 121.89C363.02 111.08 369.79 95.09 369.79 78.03C369.79 46.81 347.15 21.41 319.32 21.41C295.78 21.41 275.05 40.11 270.03 65.88L268.15 75.52L259.43 74.21C248.54 72.58 237.57 72.58 226.67 74.21L217.95 75.52L216.07 65.88C211.05 40.11 190.32 21.41 166.78 21.41C138.95 21.41 116.31 46.81 116.31 78.03C116.31 95.09 123.07 111.07 134.87 121.89L141.67 128.13L136.69 136.25C132.92 142.39 129.74 150.69 127.14 159.1C127.14 159.64 127.08 160.18 126.99 160.71C126.77 161.84 126.37 162.89 125.79 163.89L125.81 163.9Z" fill="white"/>
<path d="M165.99 112.93C149.74 112.93 135.25 102.61 129.94 87.24C126.61 77.61 127.23 67.26 131.68 58.09C136.13 48.92 143.89 42.04 153.52 38.71C157.56 37.31 161.76 36.6 166 36.6C182.25 36.6 196.74 46.92 202.06 62.29C205.39 71.92 204.77 82.27 200.32 91.44C195.87 100.61 188.11 107.49 178.48 110.82C174.44 112.22 170.24 112.93 166 112.93H165.99Z" fill="white"/>
<path d="M165.99 114.31C149.15 114.31 134.14 103.61 128.63 87.69C125.18 77.71 125.82 66.99 130.43 57.49C135.05 47.99 143.08 40.86 153.06 37.41C157.25 35.96 161.6 35.23 165.99 35.23C182.83 35.23 197.84 45.93 203.35 61.85C206.8 71.83 206.16 82.56 201.55 92.05C196.94 101.55 188.9 108.68 178.92 112.13C174.73 113.58 170.38 114.31 165.99 114.31ZM165.99 37.98C161.91 37.98 157.86 38.66 153.96 40.01C144.68 43.22 137.2 49.86 132.91 58.69C128.62 67.53 128.02 77.5 131.23 86.79C136.35 101.6 150.32 111.55 165.98 111.55C170.06 111.55 174.11 110.87 178.01 109.52C187.29 106.31 194.77 99.67 199.06 90.84C203.35 82.01 203.95 72.03 200.74 62.74C195.61 47.93 181.65 37.98 165.99 37.98Z" fill="black"/>
<path d="M68.4 261.91V388.79L244.57 454.23L420.2 388.79V266.92L68.4 261.91Z" fill="#FF0000"/>
<path d="M488.54 257.68C488.46 256.95 488.29 256.25 488.06 255.57C487.81 254.89 487.51 254.24 487.13 253.62L439.61 177.56C438.54 174.48 436.46 172.45 433.37 171.45C433.24 171.4 433.1 171.37 432.99 171.32L374.73 149.86C373.5 149.38 372.22 149.16 370.9 149.21C369.77 149.24 368.67 149.48 367.62 149.91C366.55 150.33 365.61 150.93 364.76 151.67C363.91 152.42 363.23 153.3 362.68 154.3C362.15 155.3 361.78 156.35 361.61 157.48C361.43 158.6 361.46 159.73 361.68 160.83C361.9 161.95 362.3 162.99 362.88 163.98C363.46 164.95 364.18 165.79 365.06 166.53C365.94 167.25 366.91 167.8 367.99 168.18L401.74 180.62L244.32 238.63L86.9 180.62L120.65 168.18C121.75 167.8 122.73 167.25 123.61 166.51C124.51 165.78 125.24 164.91 125.82 163.91C126.4 162.91 126.8 161.86 127.02 160.73C127.22 159.6 127.24 158.45 127.04 157.32C126.84 156.19 126.46 155.12 125.89 154.12C125.32 153.12 124.59 152.24 123.73 151.49C122.85 150.76 121.87 150.17 120.78 149.79C119.7 149.39 118.58 149.19 117.43 149.19C116.2 149.19 115.03 149.41 113.9 149.86L55.26 171.46C52.15 172.46 50.06 174.51 49 177.6L1.48001 253.62C1.10001 254.24 0.80001 254.89 0.55001 255.57C0.32001 256.25 0.15001 256.95 0.0700098 257.68C-0.00999023 258.4 -0.00999023 259.11 0.0700098 259.83C0.15001 260.56 0.30001 261.26 0.54001 261.94C0.77001 262.62 1.09001 263.29 1.46001 263.9C1.84001 264.52 2.29001 265.08 2.79001 265.6C3.31001 266.12 3.86001 266.58 4.47001 266.97C5.07001 267.37 5.72001 267.7 6.40001 267.95L48.86 283.6V395.6C48.86 397.65 49.46 399.51 50.63 401.18C51.8 402.86 53.34 404.06 55.26 404.76L240.94 473.16C243.19 473.99 245.45 473.99 247.7 473.16L433.38 404.76C435.29 404.06 436.84 402.86 438.01 401.18C439.18 399.51 439.78 397.65 439.78 395.6V283.6L482.24 267.95C482.92 267.7 483.57 267.37 484.17 266.97C484.79 266.59 485.34 266.12 485.85 265.6C486.35 265.08 486.8 264.52 487.17 263.9C487.55 263.28 487.87 262.62 488.1 261.94C488.33 261.26 488.48 260.56 488.57 259.83C488.65 259.11 488.65 258.4 488.57 257.68H488.54ZM24.41 253.79L62.71 192.53L229.67 254.02V254.04L191.37 315.28L24.41 253.79ZM234.53 449.99L68.4 388.8V290.81L192.07 336.37C193.12 336.75 194.2 336.95 195.33 336.97C196.45 336.99 197.54 336.8 198.59 336.44C199.66 336.09 200.62 335.56 201.5 334.86C202.38 334.16 203.12 333.33 203.71 332.38L234.51 283.09V450L234.53 449.99ZM420.2 388.79L254.07 449.98V283.07L284.87 332.36C285.47 333.31 286.2 334.14 287.08 334.84C287.96 335.54 288.93 336.07 289.99 336.42C291.04 336.79 292.14 336.97 293.25 336.95C294.38 336.93 295.46 336.73 296.51 336.35L420.18 290.79V388.78L420.2 388.79ZM297.23 315.28L258.95 254.04L425.89 192.53L464.19 253.79L297.23 315.28Z" fill="black"/>
<path d="M165.91 151.68C165.91 151.68 195.52 194.96 244.87 194.96C294.22 194.96 323.83 151.68 323.83 151.68C324.72 150.47 325.24 149.11 325.38 147.62C325.5 146.13 325.24 144.71 324.56 143.37C323.89 142.03 322.9 140.95 321.62 140.16C320.35 139.36 318.94 138.96 317.43 138.95C316.05 138.94 314.76 139.26 313.55 139.91C312.33 140.56 311.36 141.46 310.61 142.6C310.61 142.6 284.56 179.02 244.88 179.02C205.2 179.02 179.15 142.6 179.15 142.6C178.38 141.47 177.4 140.6 176.18 139.97C174.96 139.35 173.67 139.05 172.3 139.07C170.81 139.11 169.44 139.52 168.18 140.31C166.92 141.1 165.96 142.16 165.29 143.47C164.62 144.79 164.34 146.19 164.45 147.65C164.57 149.13 165.05 150.46 165.92 151.67L165.91 151.68Z" fill="black"/>
<path d="M62.7 192.53L24.41 253.79L191.37 315.28L229.66 254.04L62.7 192.53Z" fill="#FF0000"/>
<path d="M258.95 254.04L297.23 315.28L464.19 253.79L425.9 192.53L258.95 254.04Z" fill="#FF0000"/>
<path d="M182.679 101.116C197.388 92.0558 201.968 72.7872 192.908 58.0779C183.848 43.3687 164.579 38.7889 149.87 47.8487C135.161 56.9085 130.581 76.1772 139.641 90.8864C148.701 105.596 167.969 110.175 182.679 101.116Z" fill="#1E1F1D"/>
<path d="M185.56 97.2904C190.467 90.4518 188.901 80.9303 182.062 76.0235C175.224 71.1168 165.702 72.6828 160.795 79.5214C155.889 86.36 157.455 95.8815 164.293 100.788C171.132 105.695 180.653 104.129 185.56 97.2904Z" fill="white"/>
<path d="M320.09 112.97C303.84 112.97 289.35 102.65 284.04 87.28C280.71 77.65 281.33 67.3 285.78 58.13C290.23 48.96 297.99 42.08 307.62 38.75C311.66 37.35 315.86 36.64 320.1 36.64C336.35 36.64 350.84 46.96 356.16 62.33C359.49 71.96 358.87 82.31 354.42 91.48C349.97 100.65 342.21 107.53 332.58 110.86C328.54 112.26 324.34 112.97 320.1 112.97H320.09Z" fill="white"/>
<path d="M320.09 114.35C303.25 114.35 288.24 103.65 282.73 87.73C279.28 77.75 279.92 67.02 284.53 57.53C289.15 48.03 297.18 40.9 307.16 37.45C311.35 36 315.7 35.27 320.09 35.27C336.93 35.27 351.94 45.97 357.45 61.89C360.9 71.87 360.26 82.6 355.65 92.09C351.04 101.59 343 108.72 333.02 112.17C328.83 113.62 324.48 114.35 320.09 114.35ZM320.09 38.02C316.01 38.02 311.96 38.7 308.06 40.05C298.78 43.26 291.3 49.9 287.01 58.73C282.72 67.57 282.12 77.54 285.33 86.83C290.45 101.64 304.42 111.59 320.08 111.59C324.16 111.59 328.21 110.91 332.11 109.56C341.39 106.35 348.87 99.71 353.16 90.88C357.45 82.05 358.05 72.07 354.84 62.78C349.71 47.97 335.75 38.02 320.09 38.02Z" fill="black"/>
<path d="M336.778 101.155C351.488 92.0949 356.067 72.8263 347.008 58.1171C337.948 43.4078 318.679 38.8281 303.97 47.8879C289.261 56.9477 284.681 76.2163 293.741 90.9255C302.801 105.635 322.069 110.215 336.778 101.155Z" fill="#1E1F1D"/>
<path d="M339.669 97.3389C344.576 90.5003 343.01 80.9788 336.171 76.072C329.333 71.1652 319.811 72.7313 314.904 79.5699C309.998 86.4085 311.564 95.93 318.402 100.837C325.241 105.744 334.762 104.178 339.669 97.3389Z" fill="white"/>
<path d="M388.88 78.04C388.88 35.01 357.67 0 319.32 0C303.36 0 287.77 6.22 275.41 17.51C265.49 26.58 257.98 38.61 253.73 52.02C246.59 51.41 239.51 51.41 232.37 52.02C228.13 38.61 220.62 26.58 210.7 17.51C198.35 6.22 182.76 0 166.8 0C128.44 0 97.24 35.01 97.24 78.04C97.24 98.31 104.17 117.49 116.49 131.93C105.71 152.01 99.99 173.29 99.85 193.99C106.22 194.42 112.58 194.78 118.94 195.08C118.94 195.08 118.94 195.06 118.94 195.05C118.94 194.96 118.94 194.78 118.94 194.78C118.94 194.78 125.09 155.23 136.72 136.25L141.7 128.13L134.9 121.89C123.11 111.08 116.34 95.09 116.34 78.03C116.34 46.81 138.98 21.41 166.81 21.41C190.35 21.41 211.08 40.11 216.1 65.88L217.98 75.52L226.7 74.21C237.59 72.58 248.56 72.58 259.46 74.21L268.18 75.52L270.06 65.88C275.08 40.11 295.81 21.41 319.35 21.41C347.18 21.41 369.82 46.81 369.82 78.03C369.82 95.09 363.06 111.07 351.26 121.89L344.46 128.13L349.44 136.25C361.07 155.23 367.22 175.47 367.22 194.78C367.22 194.8 367.22 194.82 367.22 194.84C373.58 194.99 379.94 195.19 386.3 195.44C386.3 195.22 386.31 195 386.31 194.78C386.31 173.82 380.58 152.26 369.66 131.92C381.98 117.47 388.91 98.3 388.91 78.03L388.88 78.04Z" fill="black"/>
</svg>
