<svg width="62" height="25" viewBox="0 0 62 25" fill="none" xmlns="http://www.w3.org/2000/svg">
<g opacity="0.1">
<path d="M24.6385 8.64862C24.637 8.65126 24.6349 8.65343 24.6333 8.65603C24.4521 9.29996 24.3382 9.91143 24.2951 10.1603L30.8908 12.5909L37.3734 10.2019C37.3576 9.20607 37.0351 8.16647 36.4366 7.18991L36.174 6.76126L36.533 6.43204C37.1552 5.86139 37.5121 5.01791 37.5121 4.11793C37.5121 2.47064 36.3175 1.13045 34.8492 1.13045C33.607 1.13045 32.5132 2.11737 32.2483 3.4771L32.1493 3.98569L31.6894 3.91667C31.1146 3.83043 30.5357 3.83043 29.961 3.91667L29.501 3.98569L29.402 3.47708C29.1372 2.11734 28.0434 1.13045 26.8011 1.13045C25.3328 1.13045 24.1382 2.47064 24.1382 4.11793C24.1382 5.01791 24.4951 5.86139 25.1174 6.43204L25.4763 6.76126L25.2137 7.18991C25.015 7.51409 24.8468 7.95192 24.7099 8.39586C24.7094 8.42426 24.7068 8.45263 24.7018 8.4808C24.6904 8.54055 24.6693 8.59591 24.6385 8.64862Z" fill="white"/>
<path d="M26.7586 5.9588C25.9011 5.9588 25.1366 5.41406 24.8561 4.6033C24.6803 4.09509 24.7129 3.54884 24.9479 3.06515C25.1829 2.58146 25.5922 2.21826 26.1004 2.04242C26.3137 1.96866 26.5352 1.93122 26.7587 1.93122C27.6162 1.93122 28.3807 2.47597 28.6613 3.28673C28.8371 3.79494 28.8045 4.34119 28.5695 4.82488C28.3345 5.30857 27.9252 5.67177 27.417 5.84761C27.2037 5.9214 26.9822 5.9588 26.7586 5.9588Z" fill="white"/>
<path d="M26.7588 2.00398C26.5434 2.00398 26.3299 2.04005 26.1242 2.11118C25.6344 2.28065 25.2399 2.63074 25.0133 3.09697C24.7868 3.56317 24.7554 4.08971 24.9248 4.57953C25.1952 5.36103 25.9322 5.88611 26.7586 5.88611C26.9741 5.88611 27.1876 5.85004 27.3932 5.77888C27.883 5.60941 28.2776 5.25933 28.5041 4.79312C28.7306 4.32695 28.762 3.80041 28.5926 3.31053C28.3221 2.52904 27.5852 2.00398 26.7588 2.00398ZM26.7586 6.03156C25.8702 6.03156 25.078 5.46715 24.7874 4.6271C24.6052 4.10056 24.6389 3.53457 24.8825 3.0334C25.126 2.53225 25.5501 2.15591 26.0766 1.97373C26.2976 1.89727 26.5272 1.85854 26.7588 1.85854C27.6472 1.85854 28.4393 2.42294 28.73 3.26297C28.9122 3.78959 28.8784 4.35558 28.6349 4.8567C28.3914 5.35784 27.9673 5.73419 27.4408 5.91637C27.2199 5.99279 26.9903 6.03156 26.7586 6.03156Z" fill="black"/>
<path d="M21.6091 13.8198V20.5151L30.9048 23.9681L40.1724 20.5151V14.0843L21.6091 13.8198Z" fill="white"/>
<path d="M33.6839 16.6361L31.664 13.4045L40.4729 10.1589L42.4937 13.3913L33.6839 16.6361ZM40.1724 20.5151L31.4065 23.744V14.9368L33.0319 17.5375C33.0636 17.5876 33.1022 17.6315 33.1488 17.6684C33.1954 17.7053 33.2463 17.7334 33.3026 17.7519C33.3579 17.7712 33.4159 17.7809 33.4747 17.78C33.5345 17.7791 33.5916 17.7686 33.647 17.7484L40.1724 15.3445V20.5151ZM30.375 23.744L21.6091 20.5151V15.3445L28.1346 17.7484C28.1899 17.7686 28.247 17.7791 28.3068 17.78C28.3656 17.7809 28.4236 17.7712 28.479 17.7519C28.5352 17.7334 28.5862 17.7053 28.6327 17.6684C28.6793 17.6315 28.718 17.5876 28.7496 17.5375L30.375 14.9368V23.744ZM19.2878 13.3913L21.3086 10.1589L30.1185 13.4036V13.4045L28.0977 16.6361L19.2878 13.3913ZM43.7782 13.5969C43.7738 13.5583 43.7651 13.5214 43.7528 13.4854C43.7396 13.4493 43.7238 13.4151 43.7036 13.3826L41.196 9.36905C41.1398 9.20653 41.0299 9.09933 40.8665 9.04661C40.8595 9.04398 40.8525 9.04221 40.8463 9.03958L37.772 7.90704C37.707 7.88157 37.6394 7.87013 37.57 7.8728C37.5102 7.87453 37.4522 7.88684 37.3969 7.90968C37.3406 7.93165 37.2906 7.96329 37.2458 8.00281C37.201 8.04235 37.1649 8.08893 37.1359 8.14165C37.1078 8.19437 37.0885 8.24972 37.0797 8.30944C37.0701 8.36833 37.0718 8.42808 37.0832 8.48606C37.0947 8.54492 37.1157 8.60027 37.1465 8.65212C37.1773 8.70307 37.215 8.74788 37.2616 8.78653C37.3082 8.82431 37.3591 8.85332 37.4162 8.87352L39.1971 9.52984L30.8908 12.5909L22.5844 9.52984L24.3653 8.87352C24.4233 8.85332 24.4751 8.82431 24.5217 8.78566C24.5691 8.74702 24.6078 8.7013 24.6386 8.64859C24.6693 8.59587 24.6904 8.54052 24.7018 8.4808C24.7124 8.42104 24.7133 8.36042 24.7027 8.30067C24.6922 8.24092 24.6719 8.1847 24.6421 8.13198C24.6122 8.07926 24.5735 8.03268 24.5279 7.99314C24.4813 7.95449 24.4295 7.92375 24.3723 7.90354C24.3152 7.88247 24.2564 7.8719 24.1958 7.8719C24.1307 7.8719 24.0692 7.88333 24.0095 7.90704L20.915 9.04661C20.7507 9.09933 20.6409 9.2074 20.5846 9.37082L18.078 13.3826C18.0578 13.4151 18.0419 13.4493 18.0288 13.4854C18.0165 13.5214 18.0077 13.5583 18.0033 13.5969C17.9989 13.6347 17.9989 13.6725 18.0033 13.7103C18.0077 13.7489 18.0156 13.7859 18.0279 13.8219C18.0402 13.8579 18.0569 13.893 18.0762 13.9255C18.0964 13.958 18.1201 13.9879 18.1465 14.0152C18.1738 14.0424 18.2027 14.067 18.2352 14.0872C18.2669 14.1083 18.3011 14.1259 18.3372 14.139L20.5776 14.9649V20.8745C20.5776 20.9825 20.6093 21.0809 20.6708 21.1688C20.7323 21.2576 20.814 21.3208 20.915 21.3577L30.7124 24.967C30.831 25.011 30.9505 25.011 31.0691 24.967L40.8665 21.3577C40.9676 21.3208 41.0493 21.2576 41.1108 21.1688C41.1723 21.0809 41.2039 20.9825 41.2039 20.8745V14.9649L43.4444 14.139C43.4804 14.1259 43.5147 14.1083 43.5463 14.0872C43.5788 14.067 43.6078 14.0424 43.635 14.0152C43.6614 13.9879 43.6851 13.958 43.7044 13.9255C43.7247 13.893 43.7413 13.8579 43.7536 13.8219C43.7659 13.7859 43.7738 13.7489 43.7782 13.7103C43.7826 13.6725 43.7826 13.6347 43.7782 13.5969Z" fill="black"/>
<path d="M26.7544 8.00349C26.7544 8.00349 28.3169 10.2873 30.921 10.2873C33.5251 10.2873 35.0877 8.00349 35.0877 8.00349C35.1347 7.93972 35.1621 7.86807 35.1694 7.78924C35.1758 7.71041 35.1621 7.63589 35.126 7.56494C35.0906 7.49398 35.0385 7.43738 34.9706 7.39581C34.9034 7.35355 34.8289 7.33276 34.7494 7.33204C34.6764 7.33131 34.6085 7.34851 34.5449 7.38293C34.4806 7.41732 34.4293 7.4646 34.3895 7.52481C34.3895 7.52481 33.0148 9.44671 30.921 9.44671C28.8272 9.44671 27.4525 7.52481 27.4525 7.52481C27.4121 7.46532 27.36 7.41946 27.2957 7.3858C27.2314 7.35282 27.1635 7.33704 27.0912 7.33849C27.0124 7.34063 26.9401 7.36214 26.8736 7.40369C26.8071 7.44526 26.7565 7.50116 26.7211 7.57067C26.6857 7.64018 26.6712 7.714 26.677 7.79138C26.6835 7.86948 26.7088 7.93972 26.7544 8.00349Z" fill="black"/>
<path d="M21.3086 10.1589L19.2878 13.3914L28.0977 16.636L30.1185 13.4045L21.3086 10.1589Z" fill="white"/>
<path d="M31.6641 13.4045L33.684 16.636L42.4938 13.3914L40.473 10.1589L31.6641 13.4045Z" fill="white"/>
<path d="M28.2086 3.11439C28.6594 3.90674 28.3825 4.9145 27.5901 5.36527C26.7978 5.81605 25.79 5.53915 25.3393 4.7468C24.8885 3.95445 25.1654 2.94668 25.9577 2.49591C26.7501 2.04514 27.7578 2.32204 28.2086 3.11439Z" fill="#1E1F1D"/>
<path d="M27.8364 4.26676C28.056 4.65269 27.9211 5.14356 27.5352 5.36314C27.1492 5.58269 26.6584 5.44782 26.4388 5.06189C26.2192 4.67594 26.3541 4.18507 26.74 3.96552C27.126 3.74593 27.6168 3.88081 27.8364 4.26676Z" fill="white"/>
<path d="M34.8897 5.961C34.0322 5.961 33.2677 5.41625 32.9872 4.60549C32.8114 4.09728 32.844 3.55104 33.079 3.06735C33.314 2.58366 33.7233 2.22046 34.2315 2.04462C34.4448 1.97085 34.6663 1.93342 34.8899 1.93342C35.7473 1.93342 36.5118 2.47817 36.7924 3.28893C36.9682 3.79714 36.9356 4.34338 36.7006 4.82707C36.4656 5.31076 36.0563 5.67396 35.5481 5.8498C35.3348 5.9236 35.1133 5.961 34.8897 5.961Z" fill="white"/>
<path d="M34.8899 2.00618C34.6745 2.00618 34.461 2.04225 34.2553 2.11338C33.7655 2.28285 33.371 2.63293 33.1444 3.09917C32.9179 3.56537 32.8865 4.09187 33.056 4.58173C33.3263 5.36322 34.0633 5.88831 34.8897 5.88831C35.1052 5.88831 35.3187 5.85224 35.5243 5.78108C36.0141 5.61161 36.4087 5.26152 36.6352 4.79532C36.8617 4.32915 36.8932 3.80261 36.7237 3.31273C36.4532 2.53123 35.7163 2.00618 34.8899 2.00618ZM34.8897 6.03375C34.0013 6.03375 33.2092 5.46935 32.9185 4.62929C32.7363 4.10273 32.77 3.53674 33.0136 3.03559C33.2571 2.53445 33.6812 2.1581 34.2077 1.97592C34.4287 1.89947 34.6583 1.86073 34.8899 1.86073C35.7783 1.86073 36.5704 2.42513 36.8611 3.26516C37.0433 3.79178 37.0095 4.35778 36.766 4.85889C36.5225 5.36007 36.0984 5.73638 35.5719 5.91856C35.351 5.99499 35.1214 6.03375 34.8897 6.03375Z" fill="black"/>
<path d="M36.3397 3.11659C36.7905 3.90894 36.5136 4.9167 35.7212 5.36747C34.9289 5.81825 33.9211 5.54134 33.4704 4.74899C33.0196 3.95664 33.2965 2.94888 34.0888 2.49811C34.8812 2.04734 35.8889 2.32424 36.3397 3.11659Z" fill="#1E1F1D"/>
<path d="M35.9675 4.26896C36.1871 4.65489 36.0522 5.14576 35.6663 5.36534C35.2803 5.58489 34.7895 5.45002 34.5699 5.06409C34.3503 4.67813 34.4852 4.18727 34.8712 3.96771C35.2571 3.74813 35.7479 3.88301 35.9675 4.26896Z" fill="white"/>
<path d="M38.5198 4.11794C38.5198 1.84734 36.8732 4.20205e-05 34.8493 4.20205e-05C34.007 4.20205e-05 33.1843 0.328272 32.5325 0.924199C32.0089 1.40305 31.6127 2.03745 31.3888 2.7453C31.0121 2.71334 30.6384 2.71334 30.2616 2.7453C30.0378 2.03745 29.6416 1.40305 29.1179 0.924228C28.4662 0.328272 27.6434 4.20205e-05 26.8012 4.20205e-05C24.7772 4.20205e-05 23.1306 1.84734 23.1306 4.11794C23.1306 5.18769 23.4962 6.19933 24.1465 6.96174C23.5777 8.02127 23.2761 9.14393 23.2686 10.2367C23.6044 10.2593 23.9402 10.2783 24.2757 10.2943C24.2757 10.2938 24.2757 10.2934 24.2757 10.2929C24.2757 10.2881 24.2755 10.2786 24.2755 10.2786C24.2755 10.2786 24.5999 8.19152 25.2137 7.18992L25.4764 6.76127L25.1175 6.43208C24.4952 5.86143 24.1383 5.01793 24.1383 4.11794C24.1383 2.47065 25.3329 1.13049 26.8012 1.13049C28.0434 1.13049 29.1372 2.11735 29.402 3.47709L29.501 3.9857L29.961 3.91668C30.5357 3.83047 31.1147 3.83047 31.6894 3.91668L32.1494 3.9857L32.2484 3.47711C32.5133 2.11741 33.6071 1.13049 34.8493 1.13049C36.3176 1.13049 37.5122 2.47065 37.5122 4.11794C37.5122 5.01793 37.1553 5.86143 36.533 6.43208L36.174 6.76127L36.4367 7.18992C37.0505 8.19152 37.375 9.25953 37.375 10.2786C37.375 10.2795 37.375 10.2805 37.375 10.2815C37.7105 10.2894 38.0461 10.2999 38.382 10.3132C38.382 10.3016 38.3826 10.2902 38.3826 10.2786C38.3826 9.17268 38.0801 8.03476 37.5039 6.96174C38.1542 6.1993 38.5198 5.18769 38.5198 4.11794Z" fill="black"/>
</g>
<path d="M0.966 9.72H2.674L2.702 10.742H2.73C3.01 10.378 3.35533 10.0933 3.766 9.888C4.186 9.68267 4.61533 9.58 5.054 9.58C5.894 9.58 6.51 9.84133 6.902 10.364C7.30333 10.8773 7.504 11.722 7.504 12.898V17H5.712V13.08C5.712 12.2773 5.61867 11.736 5.432 11.456C5.24533 11.1667 4.90933 11.022 4.424 11.022C4.01333 11.022 3.63533 11.232 3.29 11.652C2.954 12.072 2.786 12.562 2.786 13.122V17H0.966V9.72ZM9.83653 10.602C10.4899 9.92067 11.3719 9.58 12.4825 9.58C13.5932 9.58 14.4752 9.92067 15.1285 10.602C15.7819 11.2833 16.1085 12.2027 16.1085 13.36C16.1085 14.5173 15.7819 15.4367 15.1285 16.118C14.4752 16.7993 13.5932 17.14 12.4825 17.14C11.3719 17.14 10.4899 16.7993 9.83653 16.118C9.19253 15.4367 8.87053 14.5173 8.87053 13.36C8.87053 12.2027 9.19253 11.2833 9.83653 10.602ZM12.4825 15.754C13.0519 15.754 13.4952 15.5533 13.8125 15.152C14.1299 14.7413 14.2885 14.144 14.2885 13.36C14.2885 12.576 14.1299 11.9833 13.8125 11.582C13.4952 11.1713 13.0519 10.966 12.4825 10.966C11.9225 10.966 11.4839 11.1713 11.1665 11.582C10.8492 11.9833 10.6905 12.576 10.6905 13.36C10.6905 14.144 10.8492 14.7413 11.1665 15.152C11.4839 15.5533 11.9225 15.754 12.4825 15.754ZM22.2219 8.18V6.5H24.1399V8.18H22.2219ZM22.2219 17V9.72H24.1399V17H22.2219ZM26.4914 9.72H28.1714L28.2134 10.7H28.2414C28.7827 9.95333 29.4034 9.58 30.1034 9.58C30.5607 9.58 30.9387 9.67333 31.2374 9.86C31.5361 10.0467 31.7927 10.35 32.0074 10.77H32.0354C32.6421 9.97667 33.3561 9.58 34.1774 9.58C34.9614 9.58 35.5307 9.79933 35.8854 10.238C36.2494 10.6673 36.4314 11.3953 36.4314 12.422V17H34.6674V12.842C34.6674 12.114 34.5881 11.624 34.4294 11.372C34.2801 11.12 34.0094 10.994 33.6174 10.994C33.2814 10.994 32.9874 11.1713 32.7354 11.526C32.4834 11.8807 32.3574 12.3193 32.3574 12.842V17H30.5934V12.842C30.5934 12.114 30.5141 11.624 30.3554 11.372C30.2061 11.12 29.9354 10.994 29.5434 10.994C29.2074 10.994 28.9134 11.1713 28.6614 11.526C28.4094 11.8807 28.2834 12.3193 28.2834 12.842V17H26.4914V9.72ZM41.2302 9.58C42.3409 9.58 43.1389 9.79933 43.6242 10.238C44.1096 10.6673 44.3522 11.3673 44.3522 12.338V15.04C44.3522 15.7027 44.4222 16.356 44.5622 17H42.8402C42.7842 16.692 42.7422 16.3327 42.7142 15.922H42.6862C42.4249 16.3047 42.0702 16.6033 41.6222 16.818C41.1836 17.0327 40.7029 17.14 40.1802 17.14C39.4989 17.14 38.9529 16.9533 38.5422 16.58C38.1409 16.1973 37.9402 15.67 37.9402 14.998C37.9402 14.186 38.2809 13.5373 38.9622 13.052C39.6529 12.5573 40.6422 12.31 41.9302 12.31H42.5322V12.268C42.5322 11.7733 42.4342 11.428 42.2382 11.232C42.0422 11.036 41.6922 10.938 41.1882 10.938C40.2736 10.938 39.4102 11.148 38.5982 11.568L38.3322 10.21C39.2189 9.79 40.1849 9.58 41.2302 9.58ZM39.6482 14.858C39.6482 15.1567 39.7369 15.39 39.9142 15.558C40.0916 15.726 40.3342 15.81 40.6422 15.81C41.1742 15.81 41.6222 15.6373 41.9862 15.292C42.3502 14.9467 42.5322 14.5127 42.5322 13.99V13.514H41.9302C41.1929 13.514 40.6282 13.64 40.2362 13.892C39.8442 14.1347 39.6482 14.4567 39.6482 14.858ZM48.8066 9.58C49.74 9.58 50.496 9.96733 51.0746 10.742H51.1026L51.1446 9.72H52.8386V16.258C52.8386 18.8993 51.5646 20.22 49.0166 20.22C48.1766 20.22 47.3833 20.08 46.6366 19.8L46.9586 18.428C47.6306 18.708 48.3026 18.848 48.9746 18.848C49.7026 18.848 50.23 18.6567 50.5566 18.274C50.8833 17.8913 51.0466 17.2333 51.0466 16.3V15.782H51.0186C50.4866 16.5007 49.7493 16.86 48.8066 16.86C47.9853 16.86 47.2993 16.5333 46.7486 15.88C46.2073 15.2173 45.9366 14.3307 45.9366 13.22C45.9366 12.044 46.1886 11.1433 46.6926 10.518C47.206 9.89267 47.9106 9.58 48.8066 9.58ZM47.6866 13.22C47.6866 13.92 47.836 14.4707 48.1346 14.872C48.4426 15.264 48.8393 15.46 49.3246 15.46C49.838 15.46 50.2486 15.2687 50.5566 14.886C50.8646 14.5033 51.0186 13.9713 51.0186 13.29V13.15C51.0186 12.4687 50.8646 11.9367 50.5566 11.554C50.2486 11.1713 49.838 10.98 49.3246 10.98C48.8113 10.98 48.41 11.1713 48.1206 11.554C47.8313 11.9367 47.6866 12.492 47.6866 13.22ZM56.0948 12.772H59.5108C59.5015 12.1653 59.3475 11.7033 59.0488 11.386C58.7595 11.0593 58.3488 10.896 57.8168 10.896C57.3035 10.896 56.8928 11.0593 56.5848 11.386C56.2862 11.7127 56.1228 12.1747 56.0948 12.772ZM56.0948 14.018C56.1415 14.5687 56.3515 15.0073 56.7248 15.334C57.1075 15.6513 57.5882 15.81 58.1668 15.81C58.8575 15.81 59.5435 15.6373 60.2248 15.292L60.6448 16.58C59.8048 16.9533 58.9182 17.14 57.9848 17.14C56.8835 17.14 55.9875 16.7993 55.2968 16.118C54.6155 15.4367 54.2748 14.5173 54.2748 13.36C54.2748 12.184 54.5922 11.26 55.2268 10.588C55.8615 9.916 56.7202 9.58 57.8028 9.58C58.8855 9.58 59.7255 9.902 60.3228 10.546C60.9295 11.19 61.2328 12.114 61.2328 13.318C61.2328 13.5513 61.2188 13.7847 61.1908 14.018H56.0948Z" fill="white"/>
</svg>
